<?xml version="1.0" encoding="utf-8"?>
<!-- Generator: Adobe Illustrator 27.8.1, SVG Export Plug-In . SVG Version: 6.00 Build 0)  -->
<svg version="1.1" id="Lag_1" xmlns="http://www.w3.org/2000/svg" xmlns:xlink="http://www.w3.org/1999/xlink" x="0px" y="0px"
	 viewBox="0 0 397.3 852.4" style="enable-background:new 0 0 397.3 852.4;" xml:space="preserve">
<style type="text/css">
	.st0{enable-background:new    ;}
	.st1{fill:#DADADA;}
	.st2{fill:url(#SVGID_1_);}
	.st3{fill:#B2B2B2;stroke:#000000;stroke-miterlimit:10;}
	.st4{fill:none;stroke:#000000;stroke-miterlimit:10;}
	.st5{fill:#CBBBA0;stroke:#000000;stroke-miterlimit:10;}
	.st6{fill:#009640;stroke:#000000;stroke-miterlimit:10;}
	.st7{fill:#936037;stroke:#000000;stroke-miterlimit:10;}
	.st8{fill:#3AAA35;stroke:#000000;stroke-miterlimit:10;}
	.st9{fill:none;stroke:#7D4E24;stroke-width:0.25;stroke-miterlimit:10;}
	.st10{fill:#008D36;stroke:#000000;stroke-miterlimit:10;}
	.st11{fill:#2FAC66;stroke:#000000;stroke-miterlimit:10;}
	.st12{fill:#9D9D9C;stroke:#000000;stroke-miterlimit:10;}
	.st13{fill:none;stroke:#006633;stroke-width:0.25;stroke-miterlimit:10;}
	.st14{fill:#006633;stroke:#000000;stroke-width:0.25;stroke-miterlimit:10;}
</style>
<g class="st0">
	<polygon class="st1" points="397.2,221.1 397.4,251.6 397.5,852.4 0.4,852.4 -0.4,219.3 326.4,217.6 	"/>
</g>
<linearGradient id="SVGID_1_" gradientUnits="userSpaceOnUse" x1="0" y1="110.555" x2="396.4551" y2="110.555">
	<stop  offset="0" style="stop-color:#4280BF"/>
	<stop  offset="1" style="stop-color:#4280BF;stop-opacity:0"/>
</linearGradient>
<path class="st2" d="M396.5,221.1V0H0v213.2c113.4-8.3,222.4-7.7,325.9,4.4L396.5,221.1z"/>
<polygon class="st3" points="383,220.5 326,217.6 325.2,120.9 397.3,118.2 397,221.1 "/>
<path class="st4" d="M382.6,220.5c0,0-1.1-22.3-1.7-57s0-44.9,0-44.9"/>
<path class="st4" d="M377.8,172.6"/>
<path class="st4" d="M396.5,10.1c-2.1-3.2-5.1-6.3-9.1-9.5"/>
<path class="st4" d="M142,0.6C209.5,30,270,71.1,325.2,120.9"/>
<path class="st4" d="M325.8,193.9C237.6,109.8,128.6,54.1,0.5,24.3"/>
<path class="st4" d="M62.8,210.3C53.6,199.7,26,181,0.5,173.4"/>
<path class="st4" d="M397.6,90.6c-67.6,22.1-128.7,61.7-181.8,118.1c-51.9-46-126.7-81.3-215.3-111.7"/>
<path class="st4" d="M396.7,32.6"/>
<path class="st4" d="M396.7,32.6c-114.4,35.1-211.9,99.6-286.7,175.3"/>
<path class="st4" d="M303.8,0.6C207.8,42.9,105.3,109.7,0.5,184.3"/>
<path class="st5" d="M-0.4,217.6c46.9-7.6,152.7-18.2,326.5,0c-0.1,24.6-14.1,33.4-39.8,43.1c-25.7,9.7-78.3,14.5-101.4,24.5
	c-22.2,9.6-66.7,42.4-104.7,57.5s-53.7,18.2-80.5,16.5"/>
<path class="st4" d="M148.1,0.6C93.3,39.8,43.6,77.7,0.5,113.8"/>
<path class="st4" d="M44.6,0.6C27,12.8,12.3,25.1,0.5,37.3"/>
<path class="st5" d="M396.7,514.8c-28.7-21.3-52-52.4-68.7-95.3c-11.9-26.9-15.7-53.9-3.4-81c17.6-36.1,41.1-65.7,72.1-87V514.8
	L396.7,514.8z"/>
<path class="st6" d="M0,203.5c1.5-3.8,4.9-5.6,9.7-5.8c6.2-3.9,12.1-3.9,17.9,0c5.5,6.4,9.3,18.8,12.9,31.8v46.1
	c-5.1,7.2-10.2,12.6-15.7,13.2c-9.4,9.4-19.9,8-24.7,2.5C0,291.3,0,203.5,0,203.5z"/>
<path class="st7" d="M103.2,230.8c3.5-25.4,6.1-49.2,6.8-69.5c-6.5-15.6-17.3-35.8-29.4-57.4l-12-2.8L59,106l6.8-10.1l8.6,1.2
	l-4.2-7.7l4.2-3l6.4,10.7c5.5,5.4,12.1,13.9,18.9,23.1l-3.2-16l7,5.6l2.2,17.2l4.3,16.1l1.5-22.2L101.9,96l-4.2-2.8l-4,4.2l-1.4-3.7
	l4.9-6.2l6.8,1.8l5.9-7.4l3.1,2.5l-4.4,8.1l12.7,28.5l13.2-42.4L123.3,65l3.9-4.2l11.6,10.5l16.9-16.6l3.9,4.1L151,71.9l9.8-5.5
	l3.5,3.9L148.1,83l-6.1,27.2l15.8-13.6l1.4-5.3l4-2.8v4l7.8-3.9l1.8,2.6L155,107.8l8.3-2.5v4.6l-15,6.2l-7,4.7l-2.5,7.7l12.3-5.8
	l10.3-6.9h3.4l-3,4.4l13.2-3.2v4.8l-13.5,3.4l-13.2,5.1l22.5,6.4l14.4-9.9l2.5,1.6l-10.2,12l3.9,5.8l-1.4,2.1l-10.9-5.1
	c-9.9-2.6-20.2-3.4-31.1-1.8c-7.7,31.1-8.6,61-2.5,89.5C123.3,234.7,113.6,235.2,103.2,230.8z"/>
<path class="st8" d="M81.2,299.1c0,0,21.6-103.1,22.7-126.7s-12.2-50-34.4-51.5c-27.7,0.6-42.8,15.8-41.8,49.9l9,128.2
	C50,304.7,65,304.1,81.2,299.1z"/>
<line class="st9" x1="123.2" y1="225.3" x2="121.1" y2="203.2"/>
<path class="st10" d="M161.6,252c0,0,10.8-74.9,10-86.5c-0.8-11.6-7.8-24.3-19.5-23.2c-14.3,1.5-19.6,9.5-21.5,24.1
	s5.1,85.6,5.1,85.6C145,253.5,153.6,253.7,161.6,252z"/>
<path class="st6" d="M120.5,275.5c-5-10.4-9.8-19.7-10.7-31.8s2.8-19.7,14.9-22.1s21.5,10,22,20.6s-3.5,30.5-3.5,30.5
	C135.7,274.5,128.2,275.4,120.5,275.5z"/>
<path class="st6" d="M200.5,218.2c-4.8,3.2-9.8,4.1-14.8,3c-4.8-16-7.7-31.9-8.3-47.9c-0.5-11.8,2.8-19.7,11.6-21.9
	c7.9,0.6,11.1,8.3,11.6,20.1L200.5,218.2L200.5,218.2z"/>
<path class="st11" d="M276.1,239.1c2.8-0.9,8.1-2.1,8.9-2.3c0.8-0.3,5.6-3.2,8.9-3.8c2.6-1.1,6.5-6.4,9-7c2-0.4,6.1-6.4,7.5-7.9
	s3.8-9,5.1-10.6c1.1-1.4-0.7-7.4-0.7-10.1c0,0-2.6-8.1-1.8-10.8c0.8-2.7-4.5-10.3-5.6-13s-5.6-4.8-7.6-7.5s-10.1-6.6-15-4.8
	c-4.9,1.8-10.4,0.7-16.9,4.1c-6.5,3.4-11.4,3.3-12.4,7.1c-1,3.8-6.1,7.6-5.6,11.8c0.5,4.2-2.6,10.9-2.1,14.2c0.5,3.3,0.5,7.6,0,10.2
	c-0.5,2.6-1.2,8.4,0,11.5c1.2,3.1,2.9,6.8,5.8,7.8c2.9,1,7.7,8.2,8.3,8.6C262.8,237.4,273.7,239.9,276.1,239.1z"/>
<path class="st8" d="M223.7,239.3c5.9,3.1,12.3,2.8,19,0c0,0-2.1-57.7,0-59.7s25.2-4.3,30.7-8.4c5.1-3.9,4.4-16.6,5.5-25.7
	c2.8-13.6-1.4-22.9-8.5-23s-7.8,32.8-11.1,35.5c-3.3,2.7-17.4,7.9-16.3,6.2c1-1.4,4.2-90.8,1.8-90.9c-1.8-5.5-3.7-10.5-8.7-10.5
	c-4.9,0-9.5,2.7-10.9,9.2c-3.8,17.3-1.5,103-3.2,105.4c-1.7,2.4-7.3-0.1-9.3-1.1c-4-1.9-1.6-53.9-1.6-59.2c0-8.6-3.5-11.3-7.1-11.6
	c-4.5-0.3-9.4,2.9-10.9,8.3c-1.6,5.4-4.1,66.9,0,72.8c4.1,5.9,27.8,5,29.8,8.6C225.1,198.8,223.7,239.3,223.7,239.3z"/>
<path class="st6" d="M396.5,356.5c-15.7,2.6-32.1,2.4-49,0c-8.2-12.4-13.6-25.1-15.8-38.2c-1.1-14.5,2.6-28.2,14-38.6
	c8.3-6.4,18.3-9.9,30.8-9.5c6.9,0.3,13.6,1.8,20,4.6L396.5,356.5z"/>
<path class="st10" d="M343.3,378.7c3.1,0.5,17,2.4,26,0c5.5-7.2,11.5-17.2,13.2-23.1c0.4-11.8-3.6-22.2-19.6-25.6
	c-16-3.4-23.8,1.4-27.8,13C331,354.6,337.9,377.9,343.3,378.7z"/>
<path class="st12" d="M355,417.9c1.7-4.6-2.8-7.9-7.5-8.5s-8.6,0.6-10,4.3s3.7,5.4,3.7,5.4S353.3,422.5,355,417.9z"/>
<path class="st12" d="M365.3,420.3c0.8-2.4-2.3-5.1-7.7-5.5s-9.2-0.2-11.7,3.8s-0.4,4.7,8.7,4.7
	C363.7,423.2,364.5,422.7,365.3,420.3z"/>
<path class="st3" d="M396.5,398.1c0,0-7.1,1.8-9.7,0c-2.6-1.8-2.6-4.2-1.8-8.3c0.8-4.1,4.3-5.5,7.3-6.6c2.9-1.1,4.3,0.5,4.3,0.5
	v14.4H396.5z"/>
<path class="st3" d="M387.5,394.3c-3-0.6-11,2.6-13.2,5.2s-1.2,4.8,1.2,6.4c2.5,1.6,13.4,4.2,15.6,2.2s0.8-8.2,0.8-8.2
	S390.4,394.8,387.5,394.3z"/>
<path class="st12" d="M396.5,411.8c0,0-5.7,0.5-7.8-1s-2.8-4.9-2.8-6.4s3.1-2.2,5.2-2.9c2.1-0.6,5.2,0.8,5.2,0.8L396.5,411.8
	L396.5,411.8z"/>
<path class="st10" d="M44.2,321.8c-1.8,0.3-4.6,1-7.7,2.7c-3.3,1.9-5.4,4.2-6.6,5.7c7.1,3,11,7.5,11.1,14l-14-5.8l0.1,6.3l-6.4,1.9
	l-1.5-6.4c-3.8-0.3-6.8,2.8-9,8.2c-4-6-2.8-11.4,2.4-16.3c-2-4-5.3-3.3-9.3,0c-0.7-4.6,2.1-8.9,6.1-10.1c3.3-0.9,7.2,0.4,9.4,3.4
	C27.8,311.7,36.1,315.1,44.2,321.8z"/>
<path class="st6" d="M198.5,239c0,0-1.3,6.8-4.4,8.9c-3.1,2.1-6.5,1.2-6.5,1.2c-2.8-4.6-2-8.6,2.8-11.9c-1.1-3.2-7.5-0.9-14.9,2.7
	c2.2-10.3,7.1-15.3,16.3-11.3c9.6-10.9,17-11.5,22.4-0.7c-5.6,0.1-9.9,1.3-10.9,5.1c9.8,1.6,11,6.5,4.7,14.3
	C204.4,246.4,201.4,243,198.5,239z"/>
<path class="st4" d="M397.3,118.2C363.2,74.4,322.1,34.9,272.9,0.4"/>
<path class="st13" d="M295,185.6c3.5,1,4.5,2.8,3.1,5.5"/>
<path class="st13" d="M303.8,192.5c4.1,0.4,5.4,2.9,3.7,7.5"/>
<path class="st13" d="M301.1,206c4.5,0.7,5.1,7.8,2.5,11.6"/>
<path class="st13" d="M281.1,179.4c2.9-0.9,4.5,0.2,5.2,2.8"/>
<path class="st13" d="M291.6,172.3c-0.8-2.7-3.3-3.6-7.8-2.7"/>
<path class="st13" d="M277.7,193.9c-2.6-1.3-2.9-3.5-1.1-6.5"/>
<path class="st13" d="M279.8,197.7c0.5,3.8,1.8,4.6,3.9,2.3c3.5,1.2,5.1-0.7,5.2-4.5"/>
<path class="st13" d="M268.1,188.4c-3,0.4-4.1,1.6-2.5,4.1c-0.8,3.4,0.8,5.1,4.4,5.2"/>
<path class="st13" d="M277.7,208.7c3.1,3.1,5.8,4.4,7.8,1.2c3.4,1.3,4.8-1.1,4.7-6.4"/>
<path class="st13" d="M263.9,202.2c-1.9,3.9,3.9,8.1,7.8,6.5"/>
<path class="st13" d="M259.4,199.4c-5.1-0.1-6.4-3-4.5-8.3c-2.1-5,0-7.3,6.3-6.8"/>
<path class="st13" d="M254.2,209.9c-0.4,2.9,1.7,5.1,7,6.6"/>
<path class="st13" d="M276.6,220.2c1.6,3.6,8.9,3,11.1-1.1"/>
<path class="st13" d="M262.7,224.4c0.6,4.4,2,6.9,5.6,4.7"/>
<path class="st13" d="M277.7,225c2.9,2.9,5.7,2.9,8.7,0"/>
<path class="st13" d="M11.3,213.2c1.4-1.8,3.2-2.7,5.7-2c0.9-3,3.4-1.9,6.6,1"/>
<path class="st13" d="M9.7,219.8c1.9-2.5,4.5-2.3,7.8,0.7"/>
<path class="st13" d="M20.4,223.6c4.8-0.6,6.5,0.8,5.2,4.4"/>
<path class="st13" d="M9.7,227.4c2.2-1.7,4.2-1.9,6.1,0.6"/>
<path class="st13" d="M12.8,244.3c2.3,1.8,4.8,2.2,7.7,0.9"/>
<path class="st13" d="M22.2,250.6c3.4,0.5,5.2-1.2,5.4-5"/>
<path class="st13" d="M9.7,248.5c0.5,1.9,2.5,2,5.5,0.9"/>
<path class="st13" d="M10.5,260.1c2.2,0.9,4.6,0.8,7.1,0.3"/>
<path class="st13" d="M9.7,266.3c1.1,1.2,2.1,1.5,3,0c2.1,0.9,2.9,0.3,3-1"/>
<path class="st13" d="M14,272c1.1,1.6,3.5,1.4,7.3-0.6"/>
<path class="st13" d="M9.7,277.9c2.6,1.8,5.2,1.6,7.8-0.5"/>
<path class="st13" d="M24.9,273.9c2.1-1,3.7-3.3,4.9-6.9"/>
<path class="st13" d="M4.3,235.5c-1.5,2.5-1.7,5.1-0.1,7.7"/>
<path class="st13" d="M3.7,227.8c-0.7-3.1,1.1-4.9,5.5-5.5"/>
<path class="st13" d="M3.5,269.3c-0.6,1.9,1.1,3.6,5.1,5.1"/>
<path class="st13" d="M1.7,256.8c-1,1.7,0.3,3.7,3.8,6.2"/>
<path class="st13" d="M31.7,253.1c0.2,2.3-0.6,4.2-2.9,5.3c1.4,2.9-1.3,3.7-5.5,3.7"/>
<line class="st9" x1="109.8" y1="220.8" x2="112.2" y2="213.2"/>
<path class="st9" d="M111,197.7c1.5-3.3,2.9-5.1,3.2-11.1c0.3-6,0.3-11,2-15.8"/>
<polyline class="st9" points="121.8,193.9 122.4,186.6 121.1,178.1 123.2,163.7 "/>
<path class="st9" d="M114.3,157.7c-1.4-4.4-3.5-8.4-6.1-12"/>
<path class="st9" d="M100.6,132.5c-1.4-4.8-2.4-5.6-3.4-7.3"/>
<path class="st9" d="M92.6,115.6c-0.7-2.3-2.4-5.3-4.3-8.3"/>
<path class="st9" d="M114.3,129.8c0.4-2.6,0.3-3.8,0-7.1c-0.3-3.3-1.6-8.7-3.3-13.7"/>
<path class="st9" d="M117.7,160.3l3.4-23.1c0.9-6.1,3.8-14.5,7.2-23.4"/>
<path class="st9" d="M124.7,157.7c0,0,3.7-7.6,4.3-9.8c0.6-2.2-0.4-4.8-0.9-6.4c-0.4-1.6,1.6-10.7,2.1-10.8"/>
<path class="st9" d="M134,150c0,0,0.2-2.8,0-4.2c-0.2-1.4-1.4-2.6-1.7-3.6c-0.5-1.5,8.8-8.3,9.2-7.8"/>
<path class="st9" d="M132.3,121.9c2.8-6.2,4.9-15,6.6-25.2"/>
<path class="st9" d="M134.6,91.9c0,0,3.7-8.1,4.3-9.7c0.6-1.6,0-6,0-6"/>
<path class="st9" d="M143.5,80.4c1-5,2.6-9.6,4.6-13.9"/>
<path class="st9" d="M138.9,117.1c2.9-3.1,6.6-5.4,11.1-7.2"/>
<path class="st5" d="M396.5,221.1"/>
<polyline class="st14" points="239.7,158.3 242.3,154.8 239.7,156 "/>
<polyline class="st14" points="237,149.4 239.7,146 237,147.1 "/>
<polyline class="st14" points="238.4,135.2 241,131.7 238.4,132.8 "/>
<polyline class="st14" points="236.7,123.6 239.4,120.1 236.7,121.3 "/>
<polyline class="st14" points="238.4,111 241,107.6 238.4,108.7 "/>
<polyline class="st14" points="241.4,99.7 244,96.2 241.4,97.4 "/>
<polyline class="st14" points="241.1,80.4 243.7,76.9 241.1,78.1 "/>
<polyline class="st14" points="237.3,72.7 240,69.3 237.3,70.4 "/>
<polyline class="st14" points="273,130 275,126.1 272.6,127.7 "/>
<polyline class="st14" points="272.7,148.6 276,145.7 273.1,146.4 "/>
<polyline class="st14" points="271.9,165.2 275.5,162.6 272.5,163 "/>
<polyline class="st14" points="272.3,156.3 275.5,153.1 272.6,154 "/>
<polyline class="st14" points="272,140.1 275.3,137.1 272.4,137.9 "/>
<polyline class="st14" points="236.7,90.8 239.4,87.3 236.7,88.5 "/>
<polyline class="st14" points="229.8,76.2 227.1,72.7 229.8,73.9 "/>
<polyline class="st14" points="230.5,84.6 227.9,81.1 230.5,82.2 "/>
<polyline class="st14" points="231.1,96.9 228.5,93.5 231.1,94.6 "/>
<polyline class="st14" points="230.1,107.8 227.4,104.3 230.1,105.5 "/>
<polyline class="st14" points="230.5,118.4 227.9,114.9 230.5,116.1 "/>
<polyline class="st14" points="227.4,128.7 224.8,125.2 227.4,126.4 "/>
<polyline class="st14" points="228.1,140.8 225.5,137.4 228.1,138.5 "/>
<polyline class="st14" points="230,154.3 227.3,150.8 230,152 "/>
<polyline class="st14" points="228.2,166.6 225.6,163.2 228.2,164.3 "/>
<polyline class="st14" points="197.8,118.1 195.2,114.6 197.8,115.8 "/>
<polyline class="st14" points="198.5,131.3 195.9,127.9 198.5,129 "/>
<polyline class="st14" points="195.2,145.2 192.4,141.7 195.2,142.9 "/>
<polyline class="st14" points="197.2,161.6 194.4,158.1 197.2,159.3 "/>
<polyline class="st14" points="198,178.6 195.3,175.2 198,176.3 "/>
<polyline class="st14" points="204.4,114.2 207.1,110.8 204.4,111.9 "/>
<polyline class="st14" points="203.5,125.2 206.1,121.7 203.5,122.9 "/>
<polyline class="st14" points="203.9,139.3 206.5,135.8 203.9,137 "/>
<polyline class="st14" points="203.9,152.6 206.5,149.1 203.9,150.3 "/>
<polyline class="st14" points="204.9,170.7 207.5,167.3 204.9,168.4 "/>
<polyline class="st14" points="268.7,135.8 266.1,132.4 268.7,133.5 "/>
<polyline class="st14" points="267.6,146 265,142.5 267.6,143.7 "/>
<polyline class="st14" points="266.8,152.9 264.1,149.4 266.8,150.6 "/>
<polyline class="st14" points="264.5,160.5 261.7,157 264.5,158.2 "/>
<polyline class="st14" points="189.4,215.4 186.8,211.9 189.4,213.1 "/>
<polyline class="st14" points="186.8,202.5 184.1,199.1 186.8,200.2 "/>
<polyline class="st14" points="184.1,189.3 181.5,185.8 184.1,187 "/>
<polyline class="st14" points="184.1,174.7 181.5,171.3 184.1,172.4 "/>
<polyline class="st14" points="187,161.3 184.3,157.8 187,159 "/>
<polyline class="st14" points="193,214.4 195.8,211 193,212.1 "/>
<polyline class="st14" points="194.4,200.1 197.2,196.6 194.4,197.8 "/>
<polyline class="st14" points="154.3,248.8 157.1,245.3 154.3,246.5 "/>
<polyline class="st14" points="157.5,238.2 160.1,234.8 157.5,235.9 "/>
<polyline class="st14" points="157.3,227.6 159.9,224.2 157.3,225.3 "/>
<polyline class="st14" points="160.3,217.1 163,213.6 160.3,214.8 "/>
<polyline class="st14" points="158.8,207.8 161.5,204.3 158.8,205.5 "/>
<polyline class="st14" points="161.9,197.3 164.5,193.8 161.9,195 "/>
<polyline class="st14" points="162.4,188.2 165,184.8 162.4,185.9 "/>
<polyline class="st14" points="165.4,177.7 168.2,174.2 165.4,175.4 "/>
<polyline class="st14" points="160.8,169.6 163.5,166.1 160.8,167.3 "/>
<polyline class="st14" points="163.9,159 166.6,155.6 163.9,156.7 "/>
<polyline class="st14" points="149.2,245.2 151.9,241.8 149.2,242.9 "/>
<polyline class="st14" points="152.3,234.7 155.1,231.2 152.3,232.4 "/>
<polyline class="st14" points="150.6,225.3 153.2,221.8 150.6,223 "/>
<polyline class="st14" points="153.6,214.8 156.4,211.3 153.6,212.5 "/>
<polyline class="st14" points="152.8,204.7 155.5,201.2 152.8,202.4 "/>
<polyline class="st14" points="155.9,194.2 158.6,190.7 155.9,191.9 "/>
<polyline class="st14" points="155.1,186.5 157.7,183 155.1,184.2 "/>
<polyline class="st14" points="158.1,175.9 160.8,172.5 158.1,173.6 "/>
<polyline class="st14" points="154.3,167.3 157.1,163.8 154.3,165 "/>
<polyline class="st14" points="157.5,156.7 160.1,153.3 157.5,154.4 "/>
<polyline class="st14" points="155.7,148.7 158.4,145.2 155.7,146.4 "/>
<polyline class="st14" points="138.2,222.9 135.6,219.4 138.2,220.6 "/>
<polyline class="st14" points="136.4,211.3 133.8,207.8 136.4,209 "/>
<polyline class="st14" points="138.2,203.2 135.6,199.8 138.2,200.9 "/>
<polyline class="st14" points="136.4,191.7 133.8,188.2 136.4,189.4 "/>
<polyline class="st14" points="136.9,182.7 134.3,179.2 136.9,180.4 "/>
<polyline class="st14" points="135.1,171.1 132.5,167.6 135.1,168.8 "/>
<polyline class="st14" points="138.1,161.6 135.5,158.1 138.1,159.3 "/>
<polyline class="st14" points="144.1,151 141.5,147.5 144.1,148.6 "/>
<polyline class="st14" points="145.9,222.9 143.3,219.4 145.9,220.6 "/>
<polyline class="st14" points="144.1,211.3 141.5,207.9 144.1,209 "/>
<polyline class="st14" points="145,199.8 142.4,196.3 145,197.5 "/>
<polyline class="st14" points="143.2,188.2 140.4,184.8 143.2,185.9 "/>
<polyline class="st14" points="145.9,175.2 143.3,171.7 145.9,172.9 "/>
<polyline class="st14" points="144.1,163.6 141.5,160.1 144.1,161.3 "/>
<polyline class="st14" points="139,268.3 141.4,264.6 138.8,266 "/>
<polyline class="st14" points="140.3,258.5 142.7,254.8 140,256.2 "/>
<polyline class="st14" points="139,247.3 141.4,243.6 138.8,245 "/>
<polyline class="st14" points="137.2,235.8 139.5,232 137,233.5 "/>
<polyline class="st14" points="134,264.3 136.3,260.5 133.8,262 "/>
<polyline class="st14" points="132.8,254.1 135.1,250.3 132.6,251.8 "/>
<polyline class="st14" points="131.6,244.6 133.9,240.8 131.3,242.3 "/>
<polyline class="st14" points="130.9,230.3 133.3,226.6 130.7,228 "/>
<polyline class="st14" points="120,265 117,262 119.7,262.8 "/>
<polyline class="st14" points="118.1,255.3 115,252.2 117.8,253 "/>
<polyline class="st14" points="118.8,247 115.7,244 118.5,244.8 "/>
<polyline class="st14" points="115.5,235.8 112.3,232.8 115.2,233.6 "/>
<polyline class="st14" points="126.5,268 123.5,264.9 126.2,265.7 "/>
<polyline class="st14" points="125.6,254.3 122.6,251.2 125.3,252 "/>
<polyline class="st14" points="125,242.7 121.9,239.6 124.7,240.4 "/>
<polyline class="st14" points="121.6,231.5 118.5,228.4 121.3,229.2 "/>
<polyline class="st14" points="73.3,295.1 76,291.6 73.3,292.8 "/>
<polyline class="st14" points="76.4,284.5 79.1,281.1 76.4,282.3 "/>
<polyline class="st14" points="80.2,273.9 82.9,270.4 80.2,271.6 "/>
<polyline class="st14" points="82.4,261.1 85.1,257.6 82.4,258.8 "/>
<polyline class="st14" points="84.4,250.2 87,246.7 84.4,247.9 "/>
<polyline class="st14" points="65.2,291.6 67.8,288.1 65.2,289.3 "/>
<polyline class="st14" points="68.2,280.8 70.8,277.4 68.2,278.5 "/>
<polyline class="st14" points="69.5,271.6 72.2,268.2 69.5,269.3 "/>
<polyline class="st14" points="68.2,260.2 70.8,256.8 68.2,257.9 "/>
<polyline class="st14" points="70.3,247.1 73,243.6 70.3,244.8 "/>
<polyline class="st14" points="86.6,240.8 89.4,237.3 86.6,238.5 "/>
<polyline class="st14" points="88.7,227.9 91.3,224.4 88.7,225.6 "/>
<polyline class="st14" points="86.8,217.9 89.6,214.5 86.8,215.6 "/>
<polyline class="st14" points="92.5,205.9 95.1,202.5 92.5,203.6 "/>
<polyline class="st14" points="95.1,195.4 97.8,191.9 95.1,193.1 "/>
<polyline class="st14" points="76.1,236.8 78.8,233.3 76.1,234.5 "/>
<polyline class="st14" points="76.9,226.8 79.6,223.3 76.9,224.5 "/>
<polyline class="st14" points="79.8,213.7 82.4,210.2 79.8,211.4 "/>
<polyline class="st14" points="81.5,204.2 84.2,200.7 81.5,201.9 "/>
<polyline class="st14" points="84.6,196.5 87.2,193.1 84.6,194.2 "/>
<polyline class="st14" points="97.8,185 100.4,181.5 97.8,182.7 "/>
<polyline class="st14" points="99.1,175.5 101.9,172 99.1,173.2 "/>
<polyline class="st14" points="99.1,167.5 101.9,164 99.1,165.2 "/>
<polyline class="st14" points="97.8,157.9 100.5,154.5 97.8,155.6 "/>
<polyline class="st14" points="94.5,148.5 97.2,145.1 94.5,146.2 "/>
<polyline class="st14" points="86.6,185 89.4,181.5 86.6,182.7 "/>
<polyline class="st14" points="90.9,175.5 93.5,172 90.9,173.2 "/>
<polyline class="st14" points="82.9,171.9 85.5,168.5 82.9,169.6 "/>
<polyline class="st14" points="84.2,147.5 86.8,144 84.2,145.2 "/>
<polyline class="st14" points="87.2,136.2 90,132.8 87.2,133.9 "/>
<polyline class="st14" points="88.7,155.3 91.3,151.8 88.7,153 "/>
<polyline class="st14" points="80.2,161.2 82.9,157.7 80.2,158.9 "/>
<polyline class="st14" points="74,126.2 76.8,122.7 74,123.9 "/>
<polyline class="st14" points="44,295.6 41.4,292.1 44,293.3 "/>
<polyline class="st14" points="41.3,282.6 38.6,279.1 41.3,280.3 "/>
<polyline class="st14" points="42.1,273.3 39.5,269.8 42.1,271 "/>
<polyline class="st14" points="39.9,261.1 37.3,257.6 39.9,258.8 "/>
<polyline class="st14" points="39.7,249 37.1,245.6 39.7,246.7 "/>
<polyline class="st14" points="52.8,290.3 50.2,286.9 52.8,288 "/>
<polyline class="st14" points="51.1,280 48.4,276.5 51.1,277.7 "/>
<polyline class="st14" points="52.4,269.1 49.7,265.6 52.4,266.8 "/>
<polyline class="st14" points="52.4,259.4 49.7,255.9 52.4,257.1 "/>
<polyline class="st14" points="52.4,250.8 49.7,247.3 52.4,248.5 "/>
<polyline class="st14" points="40.4,239 37.7,235.6 40.4,236.7 "/>
<polyline class="st14" points="37.1,228.5 34.4,225.1 37.1,226.2 "/>
<polyline class="st14" points="37.1,217.1 34.4,213.7 37.1,214.8 "/>
<polyline class="st14" points="35.7,207.5 33,204 35.7,205.2 "/>
<polyline class="st14" points="53.7,238.2 51.1,234.7 53.7,235.8 "/>
<polyline class="st14" points="48.2,218.2 45.4,214.7 48.2,215.9 "/>
<polyline class="st14" points="45,207.7 42.3,204.2 45,205.4 "/>
<polyline class="st14" points="34.4,191.3 31.7,187.8 34.4,189 "/>
<polyline class="st14" points="34.4,178.2 31.7,174.7 34.4,175.9 "/>
<polyline class="st14" points="37.5,153.6 34.8,150.1 37.5,151.3 "/>
<polyline class="st14" points="39,144.3 36.4,140.8 39,142 "/>
<polyline class="st14" points="48.6,181.7 45.9,178.2 48.6,179.4 "/>
<polyline class="st14" points="47.2,161.8 44.5,158.3 47.2,159.5 "/>
<polyline class="st14" points="44.1,151.2 41.5,147.8 44.1,148.9 "/>
<polyline class="st14" points="55.4,228.8 52.8,225.4 55.4,226.5 "/>
<polyline class="st14" points="59.6,217.1 56.9,213.7 59.6,214.8 "/>
<polyline class="st14" points="43.5,190 40.8,186.5 43.5,187.7 "/>
<polyline class="st14" points="49.5,199.8 46.8,196.3 49.5,197.5 "/>
<polyline class="st14" points="33,165.8 30.4,162.4 33,163.5 "/>
<polyline class="st14" points="58.9,200.7 56.2,197.2 58.9,198.4 "/>
<polyline class="st14" points="54.1,175.5 51.5,172 54.1,173.2 "/>
<polyline class="st14" points="64,145.7 61.4,142.3 64,143.4 "/>
<polyline class="st14" points="48.6,136 45.9,132.5 48.6,133.7 "/>
<polyline class="st14" points="62.7,161.2 60,157.7 62.7,158.9 "/>
<polyline class="st14" points="58.9,137.7 56.2,134.2 58.9,135.4 "/>
<polyline class="st14" points="62.7,128.8 60,125.4 62.7,126.6 "/>
<polyline class="st14" points="54.1,129.7 51.5,126.2 54.1,127.4 "/>
<polyline class="st14" points="59.8,188.6 57.2,185.1 59.8,186.3 "/>
<polyline class="st14" points="63.1,175.8 60.3,172.3 63.1,173.5 "/>
<polyline class="st14" points="56.9,167.4 54.3,164 56.9,165.1 "/>
<polyline class="st14" points="57.5,148.5 54.9,145.1 57.5,146.2 "/>
<polyline class="st14" points="67.3,238.5 70,235.1 67.3,236.3 "/>
<polyline class="st14" points="68.1,225.9 70.8,222.4 68.1,223.6 "/>
<polyline class="st14" points="70.3,213.3 73,209.8 70.3,211 "/>
<polyline class="st14" points="68.1,203.2 70.8,199.8 68.1,200.9 "/>
<polyline class="st14" points="70.1,191.3 72.7,187.8 70.1,189 "/>
<polyline class="st14" points="72.7,178.2 75.4,174.7 72.7,175.9 "/>
<polyline class="st14" points="72.3,169.2 75.1,165.7 72.3,166.9 "/>
<polyline class="st14" points="76.1,150.9 78.8,147.5 76.1,148.6 "/>
<polyline class="st14" points="73.7,136 76.4,132.5 73.7,133.7 "/>
<polyline class="st14" points="366.2,376.9 368.9,373.5 366.2,374.6 "/>
<polyline class="st14" points="370,369.6 372.7,366.2 370,367.4 "/>
<polyline class="st14" points="374,361.9 376.7,358.4 374,359.6 "/>
<polyline class="st14" points="376.3,352.4 378.9,349 376.3,350.2 "/>
<polyline class="st14" points="373.6,344.7 376.3,341.2 373.6,342.4 "/>
<polyline class="st14" points="367.9,337.3 370.6,333.9 367.9,335 "/>
<polyline class="st14" points="359.4,371.9 362,368.4 359.4,369.6 "/>
<polyline class="st14" points="364,361.9 366.7,358.4 364,359.6 "/>
<polyline class="st14" points="367.6,352.9 370.3,349.4 367.6,350.6 "/>
<polyline class="st14" points="365.4,343.8 368,340.3 365.4,341.5 "/>
<polyline class="st14" points="360.2,336.1 362.9,332.6 360.2,333.8 "/>
<polyline class="st14" points="345,376.9 342.3,373.5 345,374.6 "/>
<polyline class="st14" points="341.8,368.4 339.2,364.9 341.8,366.1 "/>
<polyline class="st14" points="339.7,359.8 337,356.4 339.7,357.5 "/>
<polyline class="st14" points="339.4,351.2 336.8,347.7 339.4,348.9 "/>
<polyline class="st14" points="342.5,342.5 339.7,339 342.5,340.2 "/>
<polyline class="st14" points="349.2,335.2 346.6,331.7 349.2,332.9 "/>
<polyline class="st14" points="351.9,372.8 349.2,369.3 351.9,370.5 "/>
<polyline class="st14" points="350.5,363.6 347.9,360.2 350.5,361.3 "/>
<polyline class="st14" points="348.7,354.4 346,351 348.7,352.2 "/>
<polyline class="st14" points="350.5,344.8 347.9,341.4 350.5,342.5 "/>
<polyline class="st14" points="359.4,353.6 362,350.2 359.4,351.3 "/>
<polyline class="st14" points="341,329.7 337.8,326.7 340.6,327.4 "/>
<polyline class="st14" points="337.1,320.5 333.9,317.6 336.7,318.3 "/>
<polyline class="st14" points="337.1,306.5 333.9,303.5 336.7,304.2 "/>
<polyline class="st14" points="350.1,319.1 346.9,316.1 349.7,316.8 "/>
<polyline class="st14" points="340.9,297 337.6,294 340.5,294.7 "/>
<polyline class="st14" points="351.7,299.3 348.5,296.4 351.3,297.1 "/>
<polyline class="st14" points="346.3,287.5 343.1,284.5 345.9,285.2 "/>
<polyline class="st14" points="353.3,281.2 350.1,278.2 352.9,278.9 "/>
<polyline class="st14" points="355,289.8 351.7,286.9 354.6,287.6 "/>
<polyline class="st14" points="361.3,277.3 358.1,274.4 360.9,275.1 "/>
<polyline class="st14" points="364.5,328.2 361.2,325.3 364.1,325.9 "/>
<polyline class="st14" points="349.5,308.8 346.3,305.9 349.1,306.6 "/>
<polyline class="st14" points="352.8,326.7 349.6,323.8 352.4,324.5 "/>
<polyline class="st14" points="359.7,308.8 356.4,305.8 359.2,306.5 "/>
<polyline class="st14" points="388.8,354 392,351.1 389.2,351.7 "/>
<polyline class="st14" points="392.7,344.9 396,341.9 393.1,342.6 "/>
<polyline class="st14" points="383,346.8 386.2,343.8 383.4,344.5 "/>
<polyline class="st14" points="390.5,335.8 393.8,332.9 390.9,333.5 "/>
<polyline class="st14" points="381.2,335.4 384.5,332.5 381.6,333.2 "/>
<polyline class="st14" points="390.4,324.4 393.6,321.5 390.8,322.2 "/>
<polyline class="st14" points="375.4,330.3 378.6,327.3 375.8,328 "/>
<polyline class="st14" points="379.5,320.9 382.9,318 380,318.7 "/>
<polyline class="st14" points="390.5,316.5 393.8,313.6 390.9,314.3 "/>
<polyline class="st14" points="392.2,306.5 395.4,303.5 392.6,304.2 "/>
<polyline class="st14" points="380.9,309.4 384.2,306.5 381.3,307.1 "/>
<polyline class="st14" points="380.7,299.9 384.1,297 381.2,297.6 "/>
<polyline class="st14" points="391.6,294.7 394.8,291.8 392,292.5 "/>
<polyline class="st14" points="391.6,284.5 394.8,281.6 392,282.3 "/>
<polyline class="st14" points="381.8,289.8 385.1,286.9 382.2,287.6 "/>
<polyline class="st14" points="383.5,278.5 386.8,275.6 383.9,276.3 "/>
<polyline class="st14" points="365.7,291.3 362.4,288.4 365.2,289 "/>
<polyline class="st14" points="364.5,283.6 361.2,280.7 364.1,281.4 "/>
<polyline class="st14" points="362.4,300.2 359.2,297.2 362,297.9 "/>
<polyline class="st14" points="370.6,275.3 367.2,272.3 370.2,273 "/>
<polyline class="st14" points="361.8,318 358.6,315.1 361.4,315.7 "/>
<polyline class="st14" points="372,319.1 368.7,316.1 371.6,316.8 "/>
<polyline class="st14" points="370.6,309.4 367.2,306.5 370.2,307.1 "/>
<polyline class="st14" points="370.9,300.8 367.6,297.9 370.5,298.5 "/>
<polyline class="st14" points="373.8,293.3 370.6,290.3 373.4,291 "/>
<polyline class="st14" points="374,284.1 370.8,281.2 373.6,281.8 "/>
</svg>
