<?xml version="1.0" encoding="UTF-8"?>
<svg id="Lag_1" data-name="Lag 1" xmlns="http://www.w3.org/2000/svg" xmlns:xlink="http://www.w3.org/1999/xlink" viewBox="0 0 398.3 569.01">
  <defs>
    <style>
      .cls-1 {
        fill: #063;
      }

      .cls-1, .cls-2, .cls-3, .cls-4, .cls-5, .cls-6, .cls-7, .cls-8, .cls-9, .cls-10 {
        stroke: #000;
      }

      .cls-1, .cls-2, .cls-3, .cls-4, .cls-5, .cls-6, .cls-7, .cls-8, .cls-9, .cls-10, .cls-11, .cls-12 {
        stroke-miterlimit: 10;
      }

      .cls-1, .cls-11, .cls-12 {
        stroke-width: .25px;
      }

      .cls-2 {
        fill: #008d36;
      }

      .cls-3 {
        fill: #009640;
      }

      .cls-4 {
        fill: #cbbba0;
      }

      .cls-5 {
        fill: #b2b2b2;
      }

      .cls-6 {
        fill: #936037;
      }

      .cls-7 {
        fill: #2fac66;
      }

      .cls-8 {
        fill: #9d9d9c;
      }

      .cls-9 {
        fill: #3aaa35;
      }

      .cls-10, .cls-11, .cls-12 {
        fill: none;
      }

      .cls-13 {
        isolation: isolate;
      }

      .cls-14 {
        fill: url(#Ikke-navngivet_forløb);
      }

      .cls-14, .cls-15 {
        stroke-width: 0px;
      }

      .cls-15 {
        fill: #dadada;
      }

      .cls-11 {
        stroke: #063;
      }

      .cls-12 {
        stroke: #7d4e24;
      }
    </style>
    <linearGradient id="Ikke-navngivet_forløb" data-name="Ikke-navngivet forløb" x1=".5" y1="741.46" x2="397" y2="741.46" gradientTransform="translate(0 852.02) scale(1 -1)" gradientUnits="userSpaceOnUse">
      <stop offset="0" stop-color="#4280bf"/>
      <stop offset="1" stop-color="#4280bf" stop-opacity="0"/>
    </linearGradient>
  </defs>
  <g class="cls-13">
    <polygon class="cls-15" points="397.7 219.55 397.9 236.43 398 569.01 .9 569.01 .1 218.55 326.9 217.61 397.7 219.55"/>
  </g>
  <path class="cls-14" d="m397,221.11V0H.5v213.2c113.4-8.3,222.4-7.7,325.9,4.4l70.6,3.5Z"/>
  <polygon class="cls-5" points="383.5 220.51 326.5 217.61 325.7 120.91 397.8 118.21 397.5 221.11 383.5 220.51"/>
  <path class="cls-10" d="m383.1,220.51s-1.1-22.3-1.7-57,0-44.9,0-44.9"/>
  <path class="cls-10" d="m397,10.11c-2.1-3.2-5.1-6.3-9.1-9.5"/>
  <path class="cls-10" d="m142.5.61c67.5,29.4,128,70.5,183.2,120.3"/>
  <path class="cls-10" d="m326.3,193.91C238.1,109.81,129.1,54.11,1,24.31"/>
  <path class="cls-10" d="m63.3,210.31c-9.2-10.6-36.8-29.3-62.3-36.9"/>
  <path class="cls-10" d="m398.1,90.61c-67.6,22.1-128.7,61.7-181.8,118.1C164.4,162.71,89.6,127.41,1,97.01"/>
  <path class="cls-10" d="m397.2,32.61c-114.4,35.1-211.9,99.6-286.7,175.3"/>
  <path class="cls-10" d="m304.3.61C208.3,42.91,105.8,109.71,1,184.31"/>
  <path class="cls-4" d="m.1,217.61c46.9-7.6,152.7-18.2,326.5,0-.1,24.6-14.1,33.4-39.8,43.1-25.7,9.7-78.3,14.5-101.4,24.5-22.2,9.6-66.7,42.4-104.7,57.5S27,360.91.2,359.21"/>
  <path class="cls-10" d="m148.6.61C93.8,39.81,44.1,77.71,1,113.81"/>
  <path class="cls-10" d="m45.1.61C27.5,12.81,12.8,25.11,1,37.31"/>
  <path class="cls-4" d="m397.2,514.81c-28.7-21.3-52-52.4-68.7-95.3-11.9-26.9-15.7-53.9-3.4-81,17.6-36.1,41.1-65.7,72.1-87v263.3h0Z"/>
  <path class="cls-3" d="m.5,203.51c1.5-3.8,4.9-5.6,9.7-5.8,6.2-3.9,12.1-3.9,17.9,0,5.5,6.4,9.3,18.8,12.9,31.8v46.1c-5.1,7.2-10.2,12.6-15.7,13.2-9.4,9.4-19.9,8-24.7,2.5-.1,0-.1-87.8-.1-87.8Z"/>
  <path class="cls-6" d="m103.7,230.81c3.5-25.4,6.1-49.2,6.8-69.5-6.5-15.6-17.3-35.8-29.4-57.4l-12-2.8-9.6,4.9,6.8-10.1,8.6,1.2-4.2-7.7,4.2-3,6.4,10.7c5.5,5.4,12.1,13.9,18.9,23.1l-3.2-16,7,5.6,2.2,17.2,4.3,16.1,1.5-22.2-9.6-24.9-4.2-2.8-4,4.2-1.4-3.7,4.9-6.2,6.8,1.8,5.9-7.4,3.1,2.5-4.4,8.1,12.7,28.5,13.2-42.4-11.2-13.6,3.9-4.2,11.6,10.5,16.9-16.6,3.9,4.1-8.6,13.1,9.8-5.5,3.5,3.9-16.2,12.7-6.1,27.2,15.8-13.6,1.4-5.3,4-2.8v4l7.8-3.9,1.8,2.6-17.8,16.6,8.3-2.5v4.6l-15,6.2-7,4.7-2.5,7.7,12.3-5.8,10.3-6.9h3.4l-3,4.4,13.2-3.2v4.8l-13.5,3.4-13.2,5.1,22.5,6.4,14.4-9.9,2.5,1.6-10.2,12,3.9,5.8-1.4,2.1-10.9-5.1c-9.9-2.6-20.2-3.4-31.1-1.8-7.7,31.1-8.6,61-2.5,89.5-12.2,3.8-21.9,4.3-32.3-.1Z"/>
  <path class="cls-9" d="m81.7,299.11s21.6-103.1,22.7-126.7-12.2-50-34.4-51.5c-27.7.6-42.8,15.8-41.8,49.9l9,128.2c13.3,5.7,28.3,5.1,44.5.1Z"/>
  <line class="cls-12" x1="123.7" y1="225.31" x2="121.6" y2="203.21"/>
  <path class="cls-2" d="m162.1,252.01s10.8-74.9,10-86.5-7.8-24.3-19.5-23.2c-14.3,1.5-19.6,9.5-21.5,24.1s5.1,85.6,5.1,85.6c9.3,1.5,17.9,1.7,25.9,0Z"/>
  <path class="cls-3" d="m121,275.51c-5-10.4-9.8-19.7-10.7-31.8s2.8-19.7,14.9-22.1,21.5,10,22,20.6-3.5,30.5-3.5,30.5c-7.5,1.8-15,2.7-22.7,2.8Z"/>
  <path class="cls-3" d="m201,218.21c-4.8,3.2-9.8,4.1-14.8,3-4.8-16-7.7-31.9-8.3-47.9-.5-11.8,2.8-19.7,11.6-21.9,7.9.6,11.1,8.3,11.6,20.1l-.1,46.7h0Z"/>
  <path class="cls-7" d="m276.6,239.11c2.8-.9,8.1-2.1,8.9-2.3.8-.3,5.6-3.2,8.9-3.8,2.6-1.1,6.5-6.4,9-7,2-.4,6.1-6.4,7.5-7.9s3.8-9,5.1-10.6c1.1-1.4-.7-7.4-.7-10.1,0,0-2.6-8.1-1.8-10.8.8-2.7-4.5-10.3-5.6-13s-5.6-4.8-7.6-7.5-10.1-6.6-15-4.8-10.4.7-16.9,4.1c-6.5,3.4-11.4,3.3-12.4,7.1s-6.1,7.6-5.6,11.8-2.6,10.9-2.1,14.2.5,7.6,0,10.2c-.5,2.6-1.2,8.4,0,11.5s2.9,6.8,5.8,7.8,7.7,8.2,8.3,8.6c.9.8,11.8,3.3,14.2,2.5Z"/>
  <path class="cls-9" d="m224.2,239.31c5.9,3.1,12.3,2.8,19,0,0,0-2.1-57.7,0-59.7s25.2-4.3,30.7-8.4c5.1-3.9,4.4-16.6,5.5-25.7,2.8-13.6-1.4-22.9-8.5-23s-7.8,32.8-11.1,35.5c-3.3,2.7-17.4,7.9-16.3,6.2,1-1.4,4.2-90.8,1.8-90.9-1.8-5.5-3.7-10.5-8.7-10.5s-9.5,2.7-10.9,9.2c-3.8,17.3-1.5,103-3.2,105.4-1.7,2.4-7.3-.1-9.3-1.1-4-1.9-1.6-53.9-1.6-59.2,0-8.6-3.5-11.3-7.1-11.6-4.5-.3-9.4,2.9-10.9,8.3-1.6,5.4-4.1,66.9,0,72.8s27.8,5,29.8,8.6c2.2,3.6.8,44.1.8,44.1Z"/>
  <path class="cls-3" d="m397,356.51c-15.7,2.6-32.1,2.4-49,0-8.2-12.4-13.6-25.1-15.8-38.2-1.1-14.5,2.6-28.2,14-38.6,8.3-6.4,18.3-9.9,30.8-9.5,6.9.3,13.6,1.8,20,4.6v81.7Z"/>
  <path class="cls-2" d="m343.8,378.71c3.1.5,17,2.4,26,0,5.5-7.2,11.5-17.2,13.2-23.1.4-11.8-3.6-22.2-19.6-25.6s-23.8,1.4-27.8,13c-4.1,11.6,2.8,34.9,8.2,35.7Z"/>
  <path class="cls-8" d="m355.5,417.91c1.7-4.6-2.8-7.9-7.5-8.5s-8.6.6-10,4.3,3.7,5.4,3.7,5.4c0,0,12.1,3.4,13.8-1.2Z"/>
  <path class="cls-8" d="m365.8,420.31c.8-2.4-2.3-5.1-7.7-5.5s-9.2-.2-11.7,3.8-.4,4.7,8.7,4.7c9.1-.1,9.9-.6,10.7-3Z"/>
  <path class="cls-5" d="m397,398.11s-7.1,1.8-9.7,0-2.6-4.2-1.8-8.3c.8-4.1,4.3-5.5,7.3-6.6,2.9-1.1,4.3.5,4.3.5v14.4h-.1Z"/>
  <path class="cls-5" d="m388,394.31c-3-.6-11,2.6-13.2,5.2s-1.2,4.8,1.2,6.4c2.5,1.6,13.4,4.2,15.6,2.2s.8-8.2.8-8.2c0,0-1.5-5.1-4.4-5.6Z"/>
  <path class="cls-8" d="m397,411.81s-5.7.5-7.8-1-2.8-4.9-2.8-6.4,3.1-2.2,5.2-2.9c2.1-.6,5.2.8,5.2.8l.2,9.5h0Z"/>
  <path class="cls-2" d="m44.7,321.81c-1.8.3-4.6,1-7.7,2.7-3.3,1.9-5.4,4.2-6.6,5.7,7.1,3,11,7.5,11.1,14l-14-5.8.1,6.3-6.4,1.9-1.5-6.4c-3.8-.3-6.8,2.8-9,8.2-4-6-2.8-11.4,2.4-16.3-2-4-5.3-3.3-9.3,0-.7-4.6,2.1-8.9,6.1-10.1,3.3-.9,7.2.4,9.4,3.4,9-13.7,17.3-10.3,25.4-3.6Z"/>
  <path class="cls-3" d="m199,239.01s-1.3,6.8-4.4,8.9c-3.1,2.1-6.5,1.2-6.5,1.2-2.8-4.6-2-8.6,2.8-11.9-1.1-3.2-7.5-.9-14.9,2.7,2.2-10.3,7.1-15.3,16.3-11.3,9.6-10.9,17-11.5,22.4-.7-5.6.1-9.9,1.3-10.9,5.1,9.8,1.6,11,6.5,4.7,14.3-3.6-.9-6.6-4.3-9.5-8.3Z"/>
  <path class="cls-10" d="m397.8,118.21C363.7,74.41,322.6,34.91,273.4.41"/>
  <path class="cls-11" d="m295.5,185.61c3.5,1,4.5,2.8,3.1,5.5"/>
  <path class="cls-11" d="m304.3,192.51c4.1.4,5.4,2.9,3.7,7.5"/>
  <path class="cls-11" d="m301.6,206.01c4.5.7,5.1,7.8,2.5,11.6"/>
  <path class="cls-11" d="m281.6,179.41c2.9-.9,4.5.2,5.2,2.8"/>
  <path class="cls-11" d="m292.1,172.31c-.8-2.7-3.3-3.6-7.8-2.7"/>
  <path class="cls-11" d="m278.2,193.91c-2.6-1.3-2.9-3.5-1.1-6.5"/>
  <path class="cls-11" d="m280.3,197.71c.5,3.8,1.8,4.6,3.9,2.3,3.5,1.2,5.1-.7,5.2-4.5"/>
  <path class="cls-11" d="m268.6,188.41c-3,.4-4.1,1.6-2.5,4.1-.8,3.4.8,5.1,4.4,5.2"/>
  <path class="cls-11" d="m278.2,208.71c3.1,3.1,5.8,4.4,7.8,1.2,3.4,1.3,4.8-1.1,4.7-6.4"/>
  <path class="cls-11" d="m264.4,202.21c-1.9,3.9,3.9,8.1,7.8,6.5"/>
  <path class="cls-11" d="m259.9,199.41c-5.1-.1-6.4-3-4.5-8.3-2.1-5,0-7.3,6.3-6.8"/>
  <path class="cls-11" d="m254.7,209.91c-.4,2.9,1.7,5.1,7,6.6"/>
  <path class="cls-11" d="m277.1,220.21c1.6,3.6,8.9,3,11.1-1.1"/>
  <path class="cls-11" d="m263.2,224.41c.6,4.4,2,6.9,5.6,4.7"/>
  <path class="cls-11" d="m278.2,225.01c2.9,2.9,5.7,2.9,8.7,0"/>
  <path class="cls-11" d="m11.8,213.21c1.4-1.8,3.2-2.7,5.7-2,.9-3,3.4-1.9,6.6,1"/>
  <path class="cls-11" d="m10.2,219.81c1.9-2.5,4.5-2.3,7.8.7"/>
  <path class="cls-11" d="m20.9,223.61c4.8-.6,6.5.8,5.2,4.4"/>
  <path class="cls-11" d="m10.2,227.41c2.2-1.7,4.2-1.9,6.1.6"/>
  <path class="cls-11" d="m13.3,244.31c2.3,1.8,4.8,2.2,7.7.9"/>
  <path class="cls-11" d="m22.7,250.61c3.4.5,5.2-1.2,5.4-5"/>
  <path class="cls-11" d="m10.2,248.51c.5,1.9,2.5,2,5.5.9"/>
  <path class="cls-11" d="m11,260.11c2.2.9,4.6.8,7.1.3"/>
  <path class="cls-11" d="m10.2,266.31c1.1,1.2,2.1,1.5,3,0,2.1.9,2.9.3,3-1"/>
  <path class="cls-11" d="m14.5,272.01c1.1,1.6,3.5,1.4,7.3-.6"/>
  <path class="cls-11" d="m10.2,277.91c2.6,1.8,5.2,1.6,7.8-.5"/>
  <path class="cls-11" d="m25.4,273.91c2.1-1,3.7-3.3,4.9-6.9"/>
  <path class="cls-11" d="m4.8,235.51c-1.5,2.5-1.7,5.1-.1,7.7"/>
  <path class="cls-11" d="m4.2,227.81c-.7-3.1,1.1-4.9,5.5-5.5"/>
  <path class="cls-11" d="m4,269.31c-.6,1.9,1.1,3.6,5.1,5.1"/>
  <path class="cls-11" d="m2.2,256.81c-1,1.7.3,3.7,3.8,6.2"/>
  <path class="cls-11" d="m32.2,253.11c.2,2.3-.6,4.2-2.9,5.3,1.4,2.9-1.3,3.7-5.5,3.7"/>
  <line class="cls-12" x1="110.3" y1="220.81" x2="112.7" y2="213.21"/>
  <path class="cls-12" d="m111.5,197.71c1.5-3.3,2.9-5.1,3.2-11.1.3-6,.3-11,2-15.8"/>
  <polyline class="cls-12" points="122.3 193.91 122.9 186.61 121.6 178.11 123.7 163.71"/>
  <path class="cls-12" d="m114.8,157.71c-1.4-4.4-3.5-8.4-6.1-12"/>
  <path class="cls-12" d="m101.1,132.51c-1.4-4.8-2.4-5.6-3.4-7.3"/>
  <path class="cls-12" d="m93.1,115.61c-.7-2.3-2.4-5.3-4.3-8.3"/>
  <path class="cls-12" d="m114.8,129.81c.4-2.6.3-3.8,0-7.1-.3-3.3-1.6-8.7-3.3-13.7"/>
  <path class="cls-12" d="m118.2,160.31l3.4-23.1c.9-6.1,3.8-14.5,7.2-23.4"/>
  <path class="cls-12" d="m125.2,157.71s3.7-7.6,4.3-9.8-.4-4.8-.9-6.4c-.4-1.6,1.6-10.7,2.1-10.8"/>
  <path class="cls-12" d="m134.5,150.01s.2-2.8,0-4.2-1.4-2.6-1.7-3.6c-.5-1.5,8.8-8.3,9.2-7.8"/>
  <path class="cls-12" d="m132.8,121.91c2.8-6.2,4.9-15,6.6-25.2"/>
  <path class="cls-12" d="m135.1,91.91s3.7-8.1,4.3-9.7,0-6,0-6"/>
  <path class="cls-12" d="m144,80.41c1-5,2.6-9.6,4.6-13.9"/>
  <path class="cls-12" d="m139.4,117.11c2.9-3.1,6.6-5.4,11.1-7.2"/>
  <polyline class="cls-1" points="240.2 158.31 242.8 154.81 240.2 156.01"/>
  <polyline class="cls-1" points="237.5 149.41 240.2 146.01 237.5 147.11"/>
  <polyline class="cls-1" points="238.9 135.21 241.5 131.71 238.9 132.81"/>
  <polyline class="cls-1" points="237.2 123.61 239.9 120.11 237.2 121.31"/>
  <polyline class="cls-1" points="238.9 111.01 241.5 107.61 238.9 108.71"/>
  <polyline class="cls-1" points="241.9 99.71 244.5 96.21 241.9 97.41"/>
  <polyline class="cls-1" points="241.6 80.41 244.2 76.91 241.6 78.11"/>
  <polyline class="cls-1" points="237.8 72.71 240.5 69.31 237.8 70.41"/>
  <polyline class="cls-1" points="273.5 130.01 275.5 126.11 273.1 127.71"/>
  <polyline class="cls-1" points="273.2 148.61 276.5 145.71 273.6 146.41"/>
  <polyline class="cls-1" points="272.4 165.21 276 162.61 273 163.01"/>
  <polyline class="cls-1" points="272.8 156.31 276 153.11 273.1 154.01"/>
  <polyline class="cls-1" points="272.5 140.11 275.8 137.11 272.9 137.91"/>
  <polyline class="cls-1" points="237.2 90.81 239.9 87.31 237.2 88.51"/>
  <polyline class="cls-1" points="230.3 76.21 227.6 72.71 230.3 73.91"/>
  <polyline class="cls-1" points="231 84.61 228.4 81.11 231 82.21"/>
  <polyline class="cls-1" points="231.6 96.91 229 93.51 231.6 94.61"/>
  <polyline class="cls-1" points="230.6 107.81 227.9 104.31 230.6 105.51"/>
  <polyline class="cls-1" points="231 118.41 228.4 114.91 231 116.11"/>
  <polyline class="cls-1" points="227.9 128.71 225.3 125.21 227.9 126.41"/>
  <polyline class="cls-1" points="228.6 140.81 226 137.41 228.6 138.51"/>
  <polyline class="cls-1" points="230.5 154.31 227.8 150.81 230.5 152.01"/>
  <polyline class="cls-1" points="228.7 166.61 226.1 163.21 228.7 164.31"/>
  <polyline class="cls-1" points="198.3 118.11 195.7 114.61 198.3 115.81"/>
  <polyline class="cls-1" points="199 131.31 196.4 127.91 199 129.01"/>
  <polyline class="cls-1" points="195.7 145.21 192.9 141.71 195.7 142.91"/>
  <polyline class="cls-1" points="197.7 161.61 194.9 158.11 197.7 159.31"/>
  <polyline class="cls-1" points="198.5 178.61 195.8 175.21 198.5 176.31"/>
  <polyline class="cls-1" points="204.9 114.21 207.6 110.81 204.9 111.91"/>
  <polyline class="cls-1" points="204 125.21 206.6 121.71 204 122.91"/>
  <polyline class="cls-1" points="204.4 139.31 207 135.81 204.4 137.01"/>
  <polyline class="cls-1" points="204.4 152.61 207 149.11 204.4 150.31"/>
  <polyline class="cls-1" points="205.4 170.71 208 167.31 205.4 168.41"/>
  <polyline class="cls-1" points="269.2 135.81 266.6 132.41 269.2 133.51"/>
  <polyline class="cls-1" points="268.1 146.01 265.5 142.51 268.1 143.71"/>
  <polyline class="cls-1" points="267.3 152.91 264.6 149.41 267.3 150.61"/>
  <polyline class="cls-1" points="265 160.51 262.2 157.01 265 158.21"/>
  <polyline class="cls-1" points="189.9 215.41 187.3 211.91 189.9 213.11"/>
  <polyline class="cls-1" points="187.3 202.51 184.6 199.11 187.3 200.21"/>
  <polyline class="cls-1" points="184.6 189.31 182 185.81 184.6 187.01"/>
  <polyline class="cls-1" points="184.6 174.71 182 171.31 184.6 172.41"/>
  <polyline class="cls-1" points="187.5 161.31 184.8 157.81 187.5 159.01"/>
  <polyline class="cls-1" points="193.5 214.41 196.3 211.01 193.5 212.11"/>
  <polyline class="cls-1" points="194.9 200.11 197.7 196.61 194.9 197.81"/>
  <polyline class="cls-1" points="154.8 248.81 157.6 245.31 154.8 246.51"/>
  <polyline class="cls-1" points="158 238.21 160.6 234.81 158 235.91"/>
  <polyline class="cls-1" points="157.8 227.61 160.4 224.21 157.8 225.31"/>
  <polyline class="cls-1" points="160.8 217.11 163.5 213.61 160.8 214.81"/>
  <polyline class="cls-1" points="159.3 207.81 162 204.31 159.3 205.51"/>
  <polyline class="cls-1" points="162.4 197.31 165 193.81 162.4 195.01"/>
  <polyline class="cls-1" points="162.9 188.21 165.5 184.81 162.9 185.91"/>
  <polyline class="cls-1" points="165.9 177.71 168.7 174.21 165.9 175.41"/>
  <polyline class="cls-1" points="161.3 169.61 164 166.11 161.3 167.31"/>
  <polyline class="cls-1" points="164.4 159.01 167.1 155.61 164.4 156.71"/>
  <polyline class="cls-1" points="149.7 245.21 152.4 241.81 149.7 242.91"/>
  <polyline class="cls-1" points="152.8 234.71 155.6 231.21 152.8 232.41"/>
  <polyline class="cls-1" points="151.1 225.31 153.7 221.81 151.1 223.01"/>
  <polyline class="cls-1" points="154.1 214.81 156.9 211.31 154.1 212.51"/>
  <polyline class="cls-1" points="153.3 204.71 156 201.21 153.3 202.41"/>
  <polyline class="cls-1" points="156.4 194.21 159.1 190.71 156.4 191.91"/>
  <polyline class="cls-1" points="155.6 186.51 158.2 183.01 155.6 184.21"/>
  <polyline class="cls-1" points="158.6 175.91 161.3 172.51 158.6 173.61"/>
  <polyline class="cls-1" points="154.8 167.31 157.6 163.81 154.8 165.01"/>
  <polyline class="cls-1" points="158 156.71 160.6 153.31 158 154.41"/>
  <polyline class="cls-1" points="156.2 148.71 158.9 145.21 156.2 146.41"/>
  <polyline class="cls-1" points="138.7 222.91 136.1 219.41 138.7 220.61"/>
  <polyline class="cls-1" points="136.9 211.31 134.3 207.81 136.9 209.01"/>
  <polyline class="cls-1" points="138.7 203.21 136.1 199.81 138.7 200.91"/>
  <polyline class="cls-1" points="136.9 191.71 134.3 188.21 136.9 189.41"/>
  <polyline class="cls-1" points="137.4 182.71 134.8 179.21 137.4 180.41"/>
  <polyline class="cls-1" points="135.6 171.11 133 167.61 135.6 168.81"/>
  <polyline class="cls-1" points="138.6 161.61 136 158.11 138.6 159.31"/>
  <polyline class="cls-1" points="144.6 151.01 142 147.51 144.6 148.61"/>
  <polyline class="cls-1" points="146.4 222.91 143.8 219.41 146.4 220.61"/>
  <polyline class="cls-1" points="144.6 211.31 142 207.91 144.6 209.01"/>
  <polyline class="cls-1" points="145.5 199.81 142.9 196.31 145.5 197.51"/>
  <polyline class="cls-1" points="143.7 188.21 140.9 184.81 143.7 185.91"/>
  <polyline class="cls-1" points="146.4 175.21 143.8 171.71 146.4 172.91"/>
  <polyline class="cls-1" points="144.6 163.61 142 160.11 144.6 161.31"/>
  <polyline class="cls-1" points="139.5 268.31 141.9 264.61 139.3 266.01"/>
  <polyline class="cls-1" points="140.8 258.51 143.2 254.81 140.5 256.21"/>
  <polyline class="cls-1" points="139.5 247.31 141.9 243.61 139.3 245.01"/>
  <polyline class="cls-1" points="137.7 235.81 140 232.01 137.5 233.51"/>
  <polyline class="cls-1" points="134.5 264.31 136.8 260.51 134.3 262.01"/>
  <polyline class="cls-1" points="133.3 254.11 135.6 250.31 133.1 251.81"/>
  <polyline class="cls-1" points="132.1 244.61 134.4 240.81 131.8 242.31"/>
  <polyline class="cls-1" points="131.4 230.31 133.8 226.61 131.2 228.01"/>
  <polyline class="cls-1" points="120.5 265.01 117.5 262.01 120.2 262.81"/>
  <polyline class="cls-1" points="118.6 255.31 115.5 252.21 118.3 253.01"/>
  <polyline class="cls-1" points="119.3 247.01 116.2 244.01 119 244.81"/>
  <polyline class="cls-1" points="116 235.81 112.8 232.81 115.7 233.61"/>
  <polyline class="cls-1" points="127 268.01 124 264.91 126.7 265.71"/>
  <polyline class="cls-1" points="126.1 254.31 123.1 251.21 125.8 252.01"/>
  <polyline class="cls-1" points="125.5 242.71 122.4 239.61 125.2 240.41"/>
  <polyline class="cls-1" points="122.1 231.51 119 228.41 121.8 229.21"/>
  <polyline class="cls-1" points="73.8 295.11 76.5 291.61 73.8 292.81"/>
  <polyline class="cls-1" points="76.9 284.51 79.6 281.11 76.9 282.31"/>
  <polyline class="cls-1" points="80.7 273.91 83.4 270.41 80.7 271.61"/>
  <polyline class="cls-1" points="82.9 261.11 85.6 257.61 82.9 258.81"/>
  <polyline class="cls-1" points="84.9 250.21 87.5 246.71 84.9 247.91"/>
  <polyline class="cls-1" points="65.7 291.61 68.3 288.11 65.7 289.31"/>
  <polyline class="cls-1" points="68.7 280.81 71.3 277.41 68.7 278.51"/>
  <polyline class="cls-1" points="70 271.61 72.7 268.21 70 269.31"/>
  <polyline class="cls-1" points="68.7 260.21 71.3 256.81 68.7 257.91"/>
  <polyline class="cls-1" points="70.8 247.11 73.5 243.61 70.8 244.81"/>
  <polyline class="cls-1" points="87.1 240.81 89.9 237.31 87.1 238.51"/>
  <polyline class="cls-1" points="89.2 227.91 91.8 224.41 89.2 225.61"/>
  <polyline class="cls-1" points="87.3 217.91 90.1 214.51 87.3 215.61"/>
  <polyline class="cls-1" points="93 205.91 95.6 202.51 93 203.61"/>
  <polyline class="cls-1" points="95.6 195.41 98.3 191.91 95.6 193.11"/>
  <polyline class="cls-1" points="76.6 236.81 79.3 233.31 76.6 234.51"/>
  <polyline class="cls-1" points="77.4 226.81 80.1 223.31 77.4 224.51"/>
  <polyline class="cls-1" points="80.3 213.71 82.9 210.21 80.3 211.41"/>
  <polyline class="cls-1" points="82 204.21 84.7 200.71 82 201.91"/>
  <polyline class="cls-1" points="85.1 196.51 87.7 193.11 85.1 194.21"/>
  <polyline class="cls-1" points="98.3 185.01 100.9 181.51 98.3 182.71"/>
  <polyline class="cls-1" points="99.6 175.51 102.4 172.01 99.6 173.21"/>
  <polyline class="cls-1" points="99.6 167.51 102.4 164.01 99.6 165.21"/>
  <polyline class="cls-1" points="98.3 157.91 101 154.51 98.3 155.61"/>
  <polyline class="cls-1" points="95 148.51 97.7 145.11 95 146.21"/>
  <polyline class="cls-1" points="87.1 185.01 89.9 181.51 87.1 182.71"/>
  <polyline class="cls-1" points="91.4 175.51 94 172.01 91.4 173.21"/>
  <polyline class="cls-1" points="83.4 171.91 86 168.51 83.4 169.61"/>
  <polyline class="cls-1" points="84.7 147.51 87.3 144.01 84.7 145.21"/>
  <polyline class="cls-1" points="87.7 136.21 90.5 132.81 87.7 133.91"/>
  <polyline class="cls-1" points="89.2 155.31 91.8 151.81 89.2 153.01"/>
  <polyline class="cls-1" points="80.7 161.21 83.4 157.71 80.7 158.91"/>
  <polyline class="cls-1" points="74.5 126.21 77.3 122.71 74.5 123.91"/>
  <polyline class="cls-1" points="44.5 295.61 41.9 292.11 44.5 293.31"/>
  <polyline class="cls-1" points="41.8 282.61 39.1 279.11 41.8 280.31"/>
  <polyline class="cls-1" points="42.6 273.31 40 269.81 42.6 271.01"/>
  <polyline class="cls-1" points="40.4 261.11 37.8 257.61 40.4 258.81"/>
  <polyline class="cls-1" points="40.2 249.01 37.6 245.61 40.2 246.71"/>
  <polyline class="cls-1" points="53.3 290.31 50.7 286.91 53.3 288.01"/>
  <polyline class="cls-1" points="51.6 280.01 48.9 276.51 51.6 277.71"/>
  <polyline class="cls-1" points="52.9 269.11 50.2 265.61 52.9 266.81"/>
  <polyline class="cls-1" points="52.9 259.41 50.2 255.91 52.9 257.11"/>
  <polyline class="cls-1" points="52.9 250.81 50.2 247.31 52.9 248.51"/>
  <polyline class="cls-1" points="40.9 239.01 38.2 235.61 40.9 236.71"/>
  <polyline class="cls-1" points="37.6 228.51 34.9 225.11 37.6 226.21"/>
  <polyline class="cls-1" points="37.6 217.11 34.9 213.71 37.6 214.81"/>
  <polyline class="cls-1" points="36.2 207.51 33.5 204.01 36.2 205.21"/>
  <polyline class="cls-1" points="54.2 238.21 51.6 234.71 54.2 235.81"/>
  <polyline class="cls-1" points="48.7 218.21 45.9 214.71 48.7 215.91"/>
  <polyline class="cls-1" points="45.5 207.71 42.8 204.21 45.5 205.41"/>
  <polyline class="cls-1" points="34.9 191.31 32.2 187.81 34.9 189.01"/>
  <polyline class="cls-1" points="34.9 178.21 32.2 174.71 34.9 175.91"/>
  <polyline class="cls-1" points="38 153.61 35.3 150.11 38 151.31"/>
  <polyline class="cls-1" points="39.5 144.31 36.9 140.81 39.5 142.01"/>
  <polyline class="cls-1" points="49.1 181.71 46.4 178.21 49.1 179.41"/>
  <polyline class="cls-1" points="47.7 161.81 45 158.31 47.7 159.51"/>
  <polyline class="cls-1" points="44.6 151.21 42 147.81 44.6 148.91"/>
  <polyline class="cls-1" points="55.9 228.81 53.3 225.41 55.9 226.51"/>
  <polyline class="cls-1" points="60.1 217.11 57.4 213.71 60.1 214.81"/>
  <polyline class="cls-1" points="44 190.01 41.3 186.51 44 187.71"/>
  <polyline class="cls-1" points="50 199.81 47.3 196.31 50 197.51"/>
  <polyline class="cls-1" points="33.5 165.81 30.9 162.41 33.5 163.51"/>
  <polyline class="cls-1" points="59.4 200.71 56.7 197.21 59.4 198.41"/>
  <polyline class="cls-1" points="54.6 175.51 52 172.01 54.6 173.21"/>
  <polyline class="cls-1" points="64.5 145.71 61.9 142.31 64.5 143.41"/>
  <polyline class="cls-1" points="49.1 136.01 46.4 132.51 49.1 133.71"/>
  <polyline class="cls-1" points="63.2 161.21 60.5 157.71 63.2 158.91"/>
  <polyline class="cls-1" points="59.4 137.71 56.7 134.21 59.4 135.41"/>
  <polyline class="cls-1" points="63.2 128.81 60.5 125.41 63.2 126.61"/>
  <polyline class="cls-1" points="54.6 129.71 52 126.21 54.6 127.41"/>
  <polyline class="cls-1" points="60.3 188.61 57.7 185.11 60.3 186.31"/>
  <polyline class="cls-1" points="63.6 175.81 60.8 172.31 63.6 173.51"/>
  <polyline class="cls-1" points="57.4 167.41 54.8 164.01 57.4 165.11"/>
  <polyline class="cls-1" points="58 148.51 55.4 145.11 58 146.21"/>
  <polyline class="cls-1" points="67.8 238.51 70.5 235.11 67.8 236.31"/>
  <polyline class="cls-1" points="68.6 225.91 71.3 222.41 68.6 223.61"/>
  <polyline class="cls-1" points="70.8 213.31 73.5 209.81 70.8 211.01"/>
  <polyline class="cls-1" points="68.6 203.21 71.3 199.81 68.6 200.91"/>
  <polyline class="cls-1" points="70.6 191.31 73.2 187.81 70.6 189.01"/>
  <polyline class="cls-1" points="73.2 178.21 75.9 174.71 73.2 175.91"/>
  <polyline class="cls-1" points="72.8 169.21 75.6 165.71 72.8 166.91"/>
  <polyline class="cls-1" points="76.6 150.91 79.3 147.51 76.6 148.61"/>
  <polyline class="cls-1" points="74.2 136.01 76.9 132.51 74.2 133.71"/>
  <polyline class="cls-1" points="366.7 376.91 369.4 373.51 366.7 374.61"/>
  <polyline class="cls-1" points="370.5 369.61 373.2 366.21 370.5 367.41"/>
  <polyline class="cls-1" points="374.5 361.91 377.2 358.41 374.5 359.61"/>
  <polyline class="cls-1" points="376.8 352.41 379.4 349.01 376.8 350.21"/>
  <polyline class="cls-1" points="374.1 344.71 376.8 341.21 374.1 342.41"/>
  <polyline class="cls-1" points="368.4 337.31 371.1 333.91 368.4 335.01"/>
  <polyline class="cls-1" points="359.9 371.91 362.5 368.41 359.9 369.61"/>
  <polyline class="cls-1" points="364.5 361.91 367.2 358.41 364.5 359.61"/>
  <polyline class="cls-1" points="368.1 352.91 370.8 349.41 368.1 350.61"/>
  <polyline class="cls-1" points="365.9 343.81 368.5 340.31 365.9 341.51"/>
  <polyline class="cls-1" points="360.7 336.11 363.4 332.61 360.7 333.81"/>
  <polyline class="cls-1" points="345.5 376.91 342.8 373.51 345.5 374.61"/>
  <polyline class="cls-1" points="342.3 368.41 339.7 364.91 342.3 366.11"/>
  <polyline class="cls-1" points="340.2 359.81 337.5 356.41 340.2 357.51"/>
  <polyline class="cls-1" points="339.9 351.21 337.3 347.71 339.9 348.91"/>
  <polyline class="cls-1" points="343 342.51 340.2 339.01 343 340.21"/>
  <polyline class="cls-1" points="349.7 335.21 347.1 331.71 349.7 332.91"/>
  <polyline class="cls-1" points="352.4 372.81 349.7 369.31 352.4 370.51"/>
  <polyline class="cls-1" points="351 363.61 348.4 360.21 351 361.31"/>
  <polyline class="cls-1" points="349.2 354.41 346.5 351.01 349.2 352.21"/>
  <polyline class="cls-1" points="351 344.81 348.4 341.41 351 342.51"/>
  <polyline class="cls-1" points="359.9 353.61 362.5 350.21 359.9 351.31"/>
  <polyline class="cls-1" points="341.5 329.71 338.3 326.71 341.1 327.41"/>
  <polyline class="cls-1" points="337.6 320.51 334.4 317.61 337.2 318.31"/>
  <polyline class="cls-1" points="337.6 306.51 334.4 303.51 337.2 304.21"/>
  <polyline class="cls-1" points="350.6 319.11 347.4 316.11 350.2 316.81"/>
  <polyline class="cls-1" points="341.4 297.01 338.1 294.01 341 294.71"/>
  <polyline class="cls-1" points="352.2 299.31 349 296.41 351.8 297.11"/>
  <polyline class="cls-1" points="346.8 287.51 343.6 284.51 346.4 285.21"/>
  <polyline class="cls-1" points="353.8 281.21 350.6 278.21 353.4 278.91"/>
  <polyline class="cls-1" points="355.5 289.81 352.2 286.91 355.1 287.61"/>
  <polyline class="cls-1" points="361.8 277.31 358.6 274.41 361.4 275.11"/>
  <polyline class="cls-1" points="365 328.21 361.7 325.31 364.6 325.91"/>
  <polyline class="cls-1" points="350 308.81 346.8 305.91 349.6 306.61"/>
  <polyline class="cls-1" points="353.3 326.71 350.1 323.81 352.9 324.51"/>
  <polyline class="cls-1" points="360.2 308.81 356.9 305.81 359.7 306.51"/>
  <polyline class="cls-1" points="389.3 354.01 392.5 351.11 389.7 351.71"/>
  <polyline class="cls-1" points="393.2 344.91 396.5 341.91 393.6 342.61"/>
  <polyline class="cls-1" points="383.5 346.81 386.7 343.81 383.9 344.51"/>
  <polyline class="cls-1" points="391 335.81 394.3 332.91 391.4 333.51"/>
  <polyline class="cls-1" points="381.7 335.41 385 332.51 382.1 333.21"/>
  <polyline class="cls-1" points="390.9 324.41 394.1 321.51 391.3 322.21"/>
  <polyline class="cls-1" points="375.9 330.31 379.1 327.31 376.3 328.01"/>
  <polyline class="cls-1" points="380 320.91 383.4 318.01 380.5 318.71"/>
  <polyline class="cls-1" points="391 316.51 394.3 313.61 391.4 314.31"/>
  <polyline class="cls-1" points="392.7 306.51 395.9 303.51 393.1 304.21"/>
  <polyline class="cls-1" points="381.4 309.41 384.7 306.51 381.8 307.11"/>
  <polyline class="cls-1" points="381.2 299.91 384.6 297.01 381.7 297.61"/>
  <polyline class="cls-1" points="392.1 294.71 395.3 291.81 392.5 292.51"/>
  <polyline class="cls-1" points="392.1 284.51 395.3 281.61 392.5 282.31"/>
  <polyline class="cls-1" points="382.3 289.81 385.6 286.91 382.7 287.61"/>
  <polyline class="cls-1" points="384 278.51 387.3 275.61 384.4 276.31"/>
  <polyline class="cls-1" points="366.2 291.31 362.9 288.41 365.7 289.01"/>
  <polyline class="cls-1" points="365 283.61 361.7 280.71 364.6 281.41"/>
  <polyline class="cls-1" points="362.9 300.21 359.7 297.21 362.5 297.91"/>
  <polyline class="cls-1" points="371.1 275.31 367.7 272.31 370.7 273.01"/>
  <polyline class="cls-1" points="362.3 318.01 359.1 315.11 361.9 315.71"/>
  <polyline class="cls-1" points="372.5 319.11 369.2 316.11 372.1 316.81"/>
  <polyline class="cls-1" points="371.1 309.41 367.7 306.51 370.7 307.11"/>
  <polyline class="cls-1" points="371.4 300.81 368.1 297.91 371 298.51"/>
  <polyline class="cls-1" points="374.3 293.31 371.1 290.31 373.9 291.01"/>
  <polyline class="cls-1" points="374.5 284.11 371.3 281.21 374.1 281.81"/>
</svg>